<?xml version="1.0" encoding="UTF-8"?>
<svg xmlns="http://www.w3.org/2000/svg" xmlns:xlink="http://www.w3.org/1999/xlink" width="33px" height="40px" viewBox="0 0 33 39" version="1.1">
<g id="surface1">
<path style="fill-rule:nonzero;fill:rgb(91.764706%,26.274511%,20.784314%);fill-opacity:1;stroke-width:2;stroke-linecap:butt;stroke-linejoin:miter;stroke:rgb(70.588237%,8.235294%,7.058824%);stroke-opacity:1;stroke-miterlimit:4;" d="M 50 43.004808 C 50.556345 43.004808 50.994318 43.449519 50.994318 44.002404 C 50.994318 44.555288 50.556345 45 50 45 C 49.443655 45 49.005682 44.555288 49.005682 44.002404 C 49.005682 43.449519 49.443655 43.004808 50 43.004808 Z M 50 41.995192 C 51.100852 41.995192 52.000473 42.896635 52.000473 44.002404 C 52.000473 45.108173 51.100852 45.997596 50 45.997596 C 48.899148 45.997596 47.999527 45.108173 47.999527 44.002404 C 47.999527 42.896635 48.899148 41.995192 50 41.995192 Z M 50 40 C 52.213542 40 54.000947 41.790865 54.000947 44.002404 C 54.000947 46.213942 52.213542 48.004808 50 48.004808 C 47.786458 48.004808 45.999053 46.213942 45.999053 44.002404 C 45.999053 41.790865 47.786458 40 50 40 Z M 50 38.004808 C 53.314394 38.004808 56.00142 40.685096 56.00142 44.002404 C 56.00142 47.319712 53.314394 50 50 50 C 46.685606 50 43.99858 47.319712 43.99858 44.002404 C 43.99858 40.685096 46.685606 38.004808 50 38.004808 Z M 50 35.997596 C 54.415246 35.997596 58.001894 39.579327 58.001894 44.002404 C 58.001894 48.413462 54.415246 51.995192 50 51.995192 C 45.584754 51.995192 41.998106 48.413462 41.998106 44.002404 C 41.998106 39.579327 45.584754 35.997596 50 35.997596 Z M 50 34.002404 C 55.527936 34.002404 60.002367 38.473558 60.002367 44.002404 C 60.002367 49.519231 55.527936 54.002404 50 54.002404 C 44.472064 54.002404 39.997633 49.519231 39.997633 44.002404 C 39.997633 38.473558 44.472064 34.002404 50 34.002404 Z M 50 31.995192 C 56.628788 31.995192 62.002841 37.367788 62.002841 44.002404 C 62.002841 50.625 56.628788 55.997596 50 55.997596 C 43.371212 55.997596 37.997159 50.625 37.997159 44.002404 C 37.997159 37.367788 43.371212 31.995192 50 31.995192 Z M 50 10 C 70.004735 10 85.002367 25 85.002367 45 C 85.002367 61.995192 68.004261 75 60.996686 85 C 52.994792 95.997596 50.994318 106.995192 50 108.004808 C 49.005682 106.995192 47.005208 95.997596 39.003314 85 C 31.995739 75 14.997633 61.995192 14.997633 45 C 14.997633 25 29.995265 10 50 10 Z M 50 10 " transform="matrix(0.33,0,0,0.325,0,0)"/>
</g>
</svg>
